<?xml version="1.0" encoding="UTF-8"?>
<mxfile host="app.diagrams.net">
  <diagram id="d1752829818572" name="Page-1">
    <mxGraphModel dx="800" dy="600" grid="1"><root>
      <mxCell id="0"/>
      <mxCell id="1" parent="0"/>
      <mxCell id="timeLabel" value="Time = 4.0" style="text;html=1;verticalAlign=middle;align=center;strokeColor=none;fillColor=none;" vertex="1" parent="1">
        <mxGeometry x="60" y="40" width="200" height="20" as="geometry"/>
      </mxCell>
      <mxCell id="table_phi1" style="shape=table;container=1;recursiveResize=0;strokeColor=#000;" vertex="1" parent="1">
        <mxGeometry x="60" y="80" width="200" height="30" as="geometry"/>
      </mxCell>
      <mxCell id="r0" style="shape=tableRow;startSize=0;fillColor=none;" vertex="1" parent="table_phi1">
        <mxGeometry y="0" width="200" height="30" as="geometry"/>
      </mxCell>
      <mxCell id="c1" value="&lt;b&gt;phi1 : Boolean&lt;/b&gt;" style="html=1;verticalAlign=middle;whiteSpace=wrap;overflow=visible;align=center;fillColor=#ADD8E6;strokeColor=none" vertex="1" parent="r0">
        <mxGeometry width="200" height="30" as="geometry"/>
      </mxCell>
      <mxCell id="table_P1" style="shape=table;container=1;recursiveResize=0;strokeColor=#000;" vertex="1" parent="1">
        <mxGeometry x="310" y="80" width="200" height="30" as="geometry"/>
      </mxCell>
      <mxCell id="r2" style="shape=tableRow;startSize=0;fillColor=none;" vertex="1" parent="table_P1">
        <mxGeometry y="0" width="200" height="30" as="geometry"/>
      </mxCell>
      <mxCell id="c3" value="&lt;b&gt;P1 : Periods&lt;/b&gt;" style="html=1;verticalAlign=middle;whiteSpace=wrap;overflow=visible;align=center;fillColor=#ADD8E6;strokeColor=none" vertex="1" parent="r2">
        <mxGeometry width="200" height="30" as="geometry"/>
      </mxCell>
      <mxCell id="table_b_check_over" style="shape=table;container=1;recursiveResize=0;strokeColor=#000;" vertex="1" parent="1">
        <mxGeometry x="60" y="190" width="200" height="70" as="geometry"/>
      </mxCell>
      <mxCell id="r4" style="shape=tableRow;startSize=0;fillColor=none;" vertex="1" parent="table_b_check_over">
        <mxGeometry y="0" width="200" height="30" as="geometry"/>
      </mxCell>
      <mxCell id="c5" value="&lt;b&gt;b_check_over : Boolean&lt;/b&gt;" style="html=1;verticalAlign=middle;whiteSpace=wrap;overflow=visible;align=center;fillColor=#ADD8E6;strokeColor=none" vertex="1" parent="r4">
        <mxGeometry width="200" height="30" as="geometry"/>
      </mxCell>
      <mxCell id="r6" style="shape=tableRow;startSize=0;fillColor=none;" vertex="1" parent="table_b_check_over">
        <mxGeometry y="30" width="200" height="40" as="geometry"/>
      </mxCell>
      <mxCell id="c7" value="value = 'check' phi1 'over' P1" style="html=1;verticalAlign=middle;whiteSpace=wrap;overflow=visible;align=left" vertex="1" parent="r6">
        <mxGeometry width="200" height="40" as="geometry"/>
      </mxCell>
      <mxCell id="edge0" style="edgeStyle=orthogonalEdgeStyle;rounded=0;strokeColor=#000;endArrow=classic;endFill=0;" edge="1" source="table_b_check_over" target="table_phi1" parent="1">
        <mxGeometry relative="1" as="geometry"/>
      </mxCell>
      <mxCell id="edge1" style="edgeStyle=orthogonalEdgeStyle;rounded=0;strokeColor=#000;endArrow=classic;endFill=0;" edge="1" source="table_b_check_over" target="table_P1" parent="1">
        <mxGeometry relative="1" as="geometry"/>
      </mxCell>
    </root></mxGraphModel>
  </diagram>
</mxfile>